<svg width="800" height="800" viewBox="0 0 800 800" fill="none" xmlns="http://www.w3.org/2000/svg">
<path d="M544 390C618.006 390 678 330.006 678 256C678 181.994 618.006 122 544 122C469.994 122 410 181.994 410 256C410 277.436 415.033 297.696 423.982 315.663C426.361 320.438 427.152 325.895 425.774 331.048L417.793 360.876C414.328 373.826 426.174 385.672 439.124 382.207L468.952 374.226C474.106 372.848 479.562 373.639 484.338 376.018C502.305 384.967 522.565 390 544 390Z" stroke="#D2F1E4" stroke-width="50"/>
<path d="M481.236 511.552L493.453 498.692L464.284 470.988L452.067 483.848L481.236 511.552ZM533.647 493.278L584.886 522.771L604.955 487.906L553.716 458.412L533.647 493.278ZM594.774 583.917L556.675 624.029L585.844 651.733L623.944 611.622L594.774 583.917ZM533.752 636.881C495.266 640.681 394.845 637.438 285.846 522.683L256.678 550.387C375.47 675.455 488.789 681.745 537.702 676.917L533.752 636.881ZM285.846 522.683C181.89 413.234 164.452 320.915 162.279 280.422L122.107 282.578C124.769 332.174 145.827 433.684 256.678 550.387L285.846 522.683ZM322.732 344.678L330.425 336.578L301.256 308.874L293.564 316.972L322.732 344.678ZM336.468 235.75L302.649 187.918L269.8 211.143L303.619 258.975L336.468 235.75ZM188.183 177.606L146.087 221.925L175.255 249.63L217.351 205.311L188.183 177.606ZM308.148 330.825C293.564 316.972 293.545 316.992 293.526 317.011C293.52 317.018 293.501 317.038 293.489 317.052C293.463 317.079 293.437 317.107 293.411 317.135C293.358 317.192 293.303 317.251 293.247 317.313C293.135 317.437 293.015 317.571 292.89 317.715C292.639 318.003 292.363 318.333 292.068 318.706C291.479 319.451 290.812 320.366 290.112 321.46C288.709 323.652 287.188 326.54 285.899 330.161C283.279 337.525 281.851 347.277 283.635 359.456C287.141 383.381 302.818 415.557 343.781 458.683L372.949 430.978C334.661 390.666 325.23 365.839 323.439 353.622C322.576 347.73 323.453 344.624 323.8 343.648C323.995 343.101 324.123 342.948 323.998 343.144C323.938 343.238 323.817 343.415 323.614 343.672C323.513 343.798 323.391 343.948 323.245 344.115C323.172 344.201 323.093 344.289 323.008 344.383C322.965 344.429 322.921 344.477 322.875 344.525C322.852 344.552 322.829 344.576 322.805 344.6C322.793 344.614 322.775 344.632 322.769 344.64C322.751 344.659 322.732 344.678 308.148 330.825ZM343.781 458.683C384.624 501.683 415.469 518.587 439.004 522.409C451.08 524.37 460.856 522.803 468.258 519.885C471.876 518.459 474.738 516.782 476.886 515.259C477.959 514.497 478.852 513.776 479.571 513.146C479.933 512.829 480.249 512.534 480.526 512.266C480.665 512.134 480.794 512.006 480.912 511.888C480.971 511.829 481.027 511.77 481.081 511.713C481.108 511.687 481.134 511.66 481.161 511.633C481.175 511.619 481.193 511.598 481.199 511.593C481.218 511.571 481.236 511.552 466.652 497.7C452.067 483.848 452.086 483.829 452.105 483.81C452.11 483.802 452.129 483.783 452.14 483.77C452.164 483.746 452.188 483.722 452.212 483.698C452.26 483.649 452.306 483.601 452.349 483.555C452.44 483.467 452.526 483.381 452.606 483.303C452.767 483.148 452.915 483.014 453.044 482.901C453.298 482.676 453.489 482.531 453.612 482.445C453.864 482.265 453.837 482.327 453.497 482.461C452.979 482.665 450.541 483.526 445.454 482.7C434.656 480.946 411.361 471.417 372.949 430.978L343.781 458.683ZM302.649 187.918C275.464 149.47 221.068 142.983 188.183 177.606L217.351 205.311C231.374 190.548 256.059 191.708 269.8 211.143L302.649 187.918ZM162.279 280.422C161.704 269.713 166.367 258.988 175.255 249.63L146.087 221.925C131.715 237.055 120.792 258.074 122.107 282.578L162.279 280.422ZM556.675 624.029C549.192 631.908 541.363 636.13 533.752 636.881L537.702 676.917C557.739 674.938 573.954 664.253 585.844 651.733L556.675 624.029ZM330.425 336.578C356.375 309.259 358.212 266.503 336.468 235.75L303.619 258.975C314.941 274.988 313.205 296.293 301.256 308.874L330.425 336.578ZM584.886 522.771C606.9 535.443 611.21 566.616 594.774 583.917L623.944 611.622C658.94 574.774 648.749 513.113 604.955 487.906L584.886 522.771ZM493.453 498.692C503.789 487.809 519.897 485.363 533.647 493.278L553.716 458.412C524.255 441.454 487.716 446.316 464.284 470.988L493.453 498.692Z" fill="#D2F1E4"/>
</svg>
