<svg width="800" height="800" viewBox="0 0 800 800" fill="none" xmlns="http://www.w3.org/2000/svg">
<path d="M689.932 401.271L414.468 112.635C410.999 109.019 406.229 107 401.237 107C396.246 107 391.457 109.038 387.989 112.635L111.112 401.271C104.084 408.577 104.341 420.196 111.644 427.227C118.966 434.239 130.563 434.037 137.591 426.695L162.252 400.977V675.644C162.252 685.776 170.473 694 180.602 694H308.792C318.903 694 327.105 685.831 327.142 675.699L327.711 492.337H473.939V675.644C473.939 685.776 482.159 694 492.288 694H620.423C630.552 694 638.773 685.776 638.773 675.644V400.885L663.416 426.713C667.031 430.458 671.839 432.367 676.665 432.367C681.234 432.367 685.821 430.678 689.363 427.245C696.666 420.233 696.904 408.614 689.895 401.308L689.932 401.271ZM602.092 367.679V657.269H510.656V473.962C510.656 463.829 502.436 455.606 492.307 455.606H309.453C299.342 455.606 291.14 463.774 291.103 473.907L290.534 657.269H198.988V367.66C198.988 366.155 198.75 364.687 198.401 363.273L401.256 151.808L602.771 363.035C602.386 364.522 602.11 366.063 602.11 367.66L602.092 367.679Z" fill="#D2F1E4"/>
</svg>
