<svg width="280" height="280" viewBox="0 0 280 280" fill="none" xmlns="http://www.w3.org/2000/svg">
<circle cx="140" cy="140" r="140" fill="#1D0E58"/>
<path d="M207.487 77.5381C231.147 77.5381 253.344 83.7938 272.52 94.7383C277.367 108.936 280 124.16 280 140C280 217.32 217.32 280 140 280C123.12 280 106.938 277.012 91.9531 271.537C81.8442 252.924 76.1026 231.593 76.1025 208.923C76.1027 136.361 134.926 77.5381 207.487 77.5381Z" fill="#D2F1E4"/>
<path d="M30 62.2027C53 33.2025 115.5 15.2026 140.5 33.2027L80.25 121.203M20 209.203L80.25 121.203M80.25 121.203L209.5 44.7026M80.25 121.203C107.583 142.369 168.8 191.603 168 197.203" stroke="#F7F9F9" stroke-width="10"/>
<path d="M86 219.566L161.695 167.103C234.768 108.271 147.83 47.3372 143.334 127.382C146.831 142.246 161.396 174.073 191.674 182.467C229.522 192.96 229.896 224.437 210.785 244.298C191.674 264.159 146.706 247.443 137.338 238.302C129.658 230.808 100.614 186.589 151.203 212.446C201.792 238.302 256.127 219.566 259.125 191.461" stroke="#812B2B" stroke-width="10"/>
</svg>
