<svg width="800" height="800" viewBox="0 0 800 800" fill="none" xmlns="http://www.w3.org/2000/svg">
<path d="M305.2 257.6H233.8C220.639 257.6 210 246.938 210 233.8C210 220.662 220.639 210 233.8 210H305.2C318.361 210 329 220.662 329 233.8C329 246.938 318.361 257.6 305.2 257.6ZM424.2 352.8H233.8C220.639 352.8 210 342.138 210 329C210 315.862 220.639 305.2 233.8 305.2H424.2C437.361 305.2 448 315.862 448 329C448 342.138 437.361 352.8 424.2 352.8ZM424.2 448H233.8C220.639 448 210 437.338 210 424.2C210 411.062 220.639 400.4 233.8 400.4H424.2C437.361 400.4 448 411.062 448 424.2C448 437.338 437.361 448 424.2 448Z" fill="#D2F1E4"/>
<path d="M543 162.583V352.917C543 366.002 532.3 376.708 519.222 376.708C506.144 376.708 495.444 366.002 495.444 352.917V174.479C495.444 167.817 490.213 162.583 483.556 162.583H174.444C167.787 162.583 162.556 167.817 162.556 174.479V626.521C162.556 633.182 167.787 638.417 174.444 638.417H483.556C490.213 638.417 495.444 633.182 495.444 626.521V614.625C495.444 601.54 506.144 590.833 519.222 590.833C532.3 590.833 543 601.54 543 614.625V638.417C543 664.587 521.6 686 495.444 686H162.556C136.4 686 115 664.587 115 638.417V162.583C115 136.412 136.4 115 162.556 115H495.444C521.6 115 543 136.412 543 162.583Z" fill="#D2F1E4"/>
<path d="M682.92 397.616C690.289 410.446 683.99 427.863 668.777 436.654L439.397 569C437.4 570.188 435.213 571.044 433.098 571.614L369.965 587.296C361.17 589.482 352.85 586.464 349.047 579.835C345.197 573.23 346.908 564.391 353.088 558.142L398.417 511.619C399.915 509.908 401.674 508.696 403.504 507.651C403.599 507.413 403.789 507.294 403.789 507.294L633.17 374.948C648.382 366.157 666.638 369.388 674.054 382.195L682.944 397.639L682.92 397.616Z" fill="#D2F1E4"/>
</svg>
